<!DOCTYPE svg PUBLIC "-//W3C//DTD SVG 20010904//EN" "http://www.w3.org/TR/2001/REC-SVG-20010904/DTD/svg10.dtd">
<svg version="1.0" xmlns="http://www.w3.org/2000/svg" width="532px" height="174px" viewBox="0 0 5320 1740" preserveAspectRatio="xMidYMid meet">
<g id="layer101" fill="#351c44" stroke="none">
 <path d="M867 1723 c-2 -4 -46 -134 -97 -287 l-93 -279 17 -54 c10 -30 16 -57 13 -59 -2 -2 -28 4 -58 14 l-54 19 -279 -93 c-154 -52 -284 -98 -289 -103 -5 -5 108 -48 280 -105 l289 -96 59 20 c32 11 59 20 61 20 1 0 -7 -29 -19 -64 l-20 -64 96 -283 c53 -156 99 -284 103 -284 4 0 50 128 102 285 104 311 98 277 65 392 -5 16 0 16 55 -3 l61 -20 285 97 c158 53 286 100 286 103 0 3 -129 49 -288 102 l-287 96 -54 -19 c-30 -10 -56 -16 -58 -14 -3 2 3 29 13 59 l17 54 -93 279 c-51 153 -96 283 -100 287 -4 5 -10 5 -13 0z m-7 -398 l0 -295 -59 0 -59 0 -21 62 -21 62 77 233 c43 128 79 233 80 233 2 0 3 -133 3 -295z m43 275 c3 -11 1 -23 -4 -26 -5 -3 -9 6 -9 20 0 31 6 34 13 6z m10 -98 c-16 -11 -18 -10 -21 8 -2 12 2 28 9 36 11 14 14 13 21 -7 7 -18 5 -27 -9 -37z m11 -67 l-29 -23 -3 21 c-3 13 5 28 19 40 21 17 23 17 32 1 7 -12 3 -22 -19 -39z m16 -67 c-41 -33 -33 -49 9 -19 l29 21 36 -108 36 -108 -21 -62 -21 -62 -59 0 -59 0 0 178 0 177 32 22 c30 21 33 21 42 6 7 -13 2 -23 -24 -45z m-275 -337 l50 -18 3 -61 3 -62 -175 0 -175 0 -25 32 c-13 18 -22 36 -20 40 6 10 44 11 44 1 1 -14 40 -56 46 -50 3 3 -2 19 -12 36 -10 17 -16 32 -13 34 10 9 186 65 204 65 11 0 43 -7 70 -17z m735 -60 l235 -79 -303 -1 -303 -1 3 62 3 61 50 18 c28 10 57 18 65 18 8 1 121 -35 250 -78z m-540 -21 l0 -60 -55 0 c-69 0 -72 17 -13 77 58 59 68 56 68 -17z m98 17 c59 -60 56 -77 -13 -77 l-55 0 0 60 c0 73 10 76 68 17z m-638 -44 l22 -28 -23 -3 c-15 -3 -29 4 -40 19 -33 45 7 55 41 12z m-72 -5 c18 -18 14 -28 -12 -28 -28 0 -54 25 -34 33 22 9 33 8 46 -5z m-68 -18 c0 -5 -15 -10 -32 -9 -28 0 -30 2 -13 9 28 12 45 12 45 0z m540 -93 l0 -63 -63 -20 -62 -21 -245 83 -245 82 308 1 307 1 0 -63z m140 3 c0 -50 -3 -60 -17 -60 -26 0 -93 70 -93 97 0 21 4 23 55 23 l55 0 0 -60z m140 38 c0 -27 -67 -98 -92 -98 -15 0 -18 9 -18 60 l0 60 55 0 c50 0 55 -2 55 -22z m405 -15 c22 -34 23 -38 8 -47 -12 -7 -23 -1 -44 25 -33 41 -50 33 -20 -10 l21 -29 -104 -35 -105 -35 -65 20 -66 20 0 64 0 64 175 0 174 0 26 -37z m65 11 c21 -21 22 -27 10 -34 -21 -13 -28 -9 -51 28 -20 31 -20 32 -2 32 11 0 30 -11 43 -26z m79 7 c9 -15 7 -20 -11 -24 -20 -6 -47 15 -48 36 0 16 50 6 59 -12z m76 9 c-28 -12 -55 -12 -55 0 0 6 17 10 38 9 30 0 33 -2 17 -9z m-765 -312 l0 -183 -35 -22 -34 -22 -7 21 c-4 13 -1 24 7 29 34 19 53 38 46 45 -4 4 -20 -2 -36 -14 l-29 -21 -36 106 -36 107 22 68 22 68 58 0 58 0 0 -182z m170 115 l22 -68 -81 -235 -80 -235 0 303 -1 302 59 0 60 0 21 -67z m-191 -386 c-21 -17 -23 -17 -32 -1 -8 14 -4 23 19 41 l29 23 3 -22 c3 -14 -4 -29 -19 -41z m19 -44 c-2 -14 -8 -28 -14 -30 -17 -6 -26 27 -13 43 18 22 31 16 27 -13z m1 -80 c0 -25 -1 -25 -8 -8 -5 11 -7 23 -4 28 8 14 13 7 12 -20z"/>
 <path d="M3053 1201 c-46 -21 -63 -45 -63 -88 0 -43 33 -73 79 -73 46 0 71 24 71 69 0 24 -6 34 -25 41 -28 11 -31 20 -13 38 17 17 44 15 62 -4 14 -13 16 -53 16 -285 l0 -269 -30 0 c-16 0 -30 -4 -30 -10 0 -6 53 -10 140 -10 87 0 140 4 140 10 0 6 -9 10 -19 10 -18 0 -19 12 -23 223 -4 245 -10 271 -67 320 -59 49 -163 61 -238 28z"/>
 <path d="M4297 1018 c-41 -112 -90 -245 -108 -295 -25 -67 -39 -93 -51 -93 -9 0 -20 -4 -23 -10 -4 -6 45 -10 139 -10 91 0 146 4 146 10 0 6 -14 10 -31 10 -17 0 -29 4 -27 9 2 5 32 95 68 200 36 105 67 191 70 191 5 0 140 -378 140 -393 0 -4 -13 -7 -30 -7 -16 0 -30 -4 -30 -10 0 -6 30 -10 71 -10 44 0 68 4 64 10 -3 6 -14 10 -24 10 -14 0 -29 32 -69 148 -28 81 -74 213 -102 295 l-52 147 -38 0 -38 0 -75 -202z"/>
 <path d="M4890 1205 c-52 -16 -102 -65 -119 -114 -7 -21 -11 -115 -11 -247 l0 -214 -25 0 c-14 0 -25 -4 -25 -10 0 -6 54 -10 141 -10 91 0 138 4 134 10 -3 6 -17 10 -31 10 l-25 0 3 238 c3 202 6 242 20 269 30 54 123 67 185 27 52 -33 57 -62 61 -306 l4 -228 -31 0 c-17 0 -31 -4 -31 -10 0 -6 28 -10 65 -10 37 0 65 4 65 10 0 6 -11 10 -25 10 l-25 0 0 228 c0 216 -1 230 -22 272 -33 64 -72 83 -177 87 -55 2 -102 -2 -131 -12z"/>
 <path d="M1810 1201 c0 -6 11 -11 25 -11 l25 0 0 -280 0 -280 -25 0 c-14 0 -25 -4 -25 -10 0 -17 357 -13 414 4 78 24 121 58 153 123 25 52 28 69 28 153 -1 114 -14 159 -67 216 -67 73 -119 87 -340 92 -132 3 -188 1 -188 -7z m337 -31 c45 -27 63 -69 76 -177 12 -108 0 -250 -27 -302 -20 -38 -63 -61 -116 -61 l-40 0 0 280 0 280 38 0 c20 0 51 -9 69 -20z"/>
 <path d="M2460 1200 c0 -5 11 -10 25 -10 l25 0 0 -280 0 -280 -25 0 c-14 0 -25 -4 -25 -10 0 -6 82 -10 225 -10 l225 0 0 63 c0 34 3 72 6 85 5 16 2 22 -10 22 -9 0 -16 -5 -16 -12 0 -6 -14 -33 -30 -59 -34 -52 -84 -79 -145 -79 l-35 0 0 130 0 130 30 0 c36 0 76 -35 92 -80 5 -17 14 -30 19 -30 12 0 12 247 0 254 -5 3 -16 -15 -26 -39 -19 -51 -47 -75 -87 -75 l-28 0 0 135 0 135 28 0 c81 0 155 -48 192 -125 12 -25 26 -45 31 -45 10 0 12 76 3 144 l-7 46 -233 0 c-149 0 -234 -4 -234 -10z"/>
 <path d="M3360 1200 c0 -5 10 -10 23 -10 20 0 32 -28 131 -295 l109 -295 37 0 37 0 108 295 c88 242 111 295 126 295 11 0 19 5 19 10 0 6 -53 10 -140 10 -87 0 -140 -4 -140 -10 0 -5 13 -10 29 -10 l30 0 -31 -90 -30 -91 -85 3 -85 3 -29 80 c-16 44 -29 83 -29 88 0 4 14 7 30 7 17 0 30 5 30 10 0 6 -30 10 -70 10 -40 0 -70 -4 -70 -10z m264 -312 c-18 -55 -35 -103 -37 -105 -3 -2 -18 36 -35 84 -17 48 -34 96 -37 106 -6 15 1 17 68 17 l76 0 -35 -102z"/>
 <path d="M2620 574 c0 -4 21 -38 47 -76 38 -55 52 -68 73 -68 38 0 63 21 58 51 -2 18 -18 31 -68 55 -74 36 -110 49 -110 38z"/>
 <path d="M3657 550 c-38 -16 -75 -34 -83 -41 -20 -17 -17 -57 5 -69 42 -22 64 -12 109 51 47 66 59 89 46 89 -5 0 -40 -14 -77 -30z"/>
 </g>

</svg>